<?xml version="1.0" encoding="UTF-8"?>
<svg version="1.1" xmlns="http://www.w3.org/2000/svg" width="76" height="75">
<path d="M0 0 C25.08 0 50.16 0 76 0 C76 24.75 76 49.5 76 75 C50.92 75 25.84 75 0 75 C0 50.25 0 25.5 0 0 Z " fill="#F6FCFA" transform="translate(0,0)"/>
<path d="M0 0 C4.71838234 6.2486685 5.80896127 11.32056485 5 19 C2.9837069 25.65952805 -0.95458968 29.53983612 -6.82421875 33.109375 C-11.74913228 35.12531806 -18.12879612 34.91215141 -23.1640625 33.3125 C-28.37235053 30.55921998 -31.84570183 26.47349609 -34.3125 21.1875 C-35.61116392 15.16642183 -36.08558489 10.22141477 -32.875 4.75 C-28.74287443 -1.0442096 -24.43152495 -4.59890973 -17.3671875 -5.84765625 C-10.72692406 -6.27499994 -5.09200359 -4.26307278 0 0 Z " fill="#9ECD46" transform="translate(52,26)"/>
<path d="M0 0 C0 12.87 0 25.74 0 39 C-11.35653954 37.73816227 -11.35653954 37.73816227 -16 32 C-19.52457122 26.4420223 -21.33778993 20.5493542 -20 14 C-16.11121801 4.81585531 -9.92669367 0 0 0 Z " fill="#FEC838" transform="translate(37,21)"/>
<path d="M0 0 C0.02705308 2.41674224 0.04686438 4.8331794 0.0625 7.25 C0.07087891 7.93191406 0.07925781 8.61382812 0.08789062 9.31640625 C0.10428392 12.69342554 0.05628768 15.77291639 -1 19 C-2.65 19 -4.3 19 -6 19 C-6 17.35 -6 15.7 -6 14 C-4.35 13.34 -2.7 12.68 -1 12 C-2.98 12.66 -4.96 13.32 -7 14 C-7.33 15.65 -7.66 17.3 -8 19 C-11.96 19 -15.92 19 -20 19 C-19.44023821 12.00297764 -17.17925979 7.71362877 -11.875 3.1875 C-7.57893289 -0.08124672 -5.37986832 -0.09962719 0 0 Z " fill="#F37B23" transform="translate(37,21)"/>
<path d="M0 0 C7.26804951 1.22749281 12.39912753 2.90707058 17.3125 8.75 C19.36412147 12.70127099 19.69551872 15.58502151 20 20 C16.04 20 12.08 20 8 20 C7.34 18.02 6.68 16.04 6 14 C4.02 14 2.04 14 0 14 C-1.03115279 10.73086376 -0.9638984 8.13958652 -0.5625 4.75 C-0.46066406 3.85796875 -0.35882813 2.9659375 -0.25390625 2.046875 C-0.17011719 1.37140625 -0.08632813 0.6959375 0 0 Z " fill="#43BEB3" transform="translate(37,20)"/>
<path d="M0 0 C2.5625 0.1875 2.5625 0.1875 4.5625 2.1875 C4.828125 4.71875 4.828125 4.71875 4.8125 7.6875 C4.81765625 8.6671875 4.8228125 9.646875 4.828125 10.65625 C4.5625 13.1875 4.5625 13.1875 2.5625 15.1875 C-0.0625 15.3125 -0.0625 15.3125 -2.4375 15.1875 C-2.7675 16.1775 -3.0975 17.1675 -3.4375 18.1875 C-3.46434312 15.37493719 -3.48426188 12.56262759 -3.5 9.75 C-3.50837891 8.94755859 -3.51675781 8.14511719 -3.52539062 7.31835938 C-3.5340143 5.27454779 -3.4897815 3.23066098 -3.4375 1.1875 C-2.4375 0.1875 -2.4375 0.1875 0 0 Z " fill="#B8DD8F" transform="translate(40.4375,32.8125)"/>
<path d="M0 0 C2.0625 0.4375 2.0625 0.4375 4 1 C4.33 2.65 4.66 4.3 5 6 C3.02 6 1.04 6 -1 6 C-1.042721 4.33388095 -1.04063832 2.66617115 -1 1 C-0.67 0.67 -0.34 0.34 0 0 Z " fill="#42BFB4" transform="translate(39,34)"/>
</svg>
